<svg viewBox="0 0 1584 396" xmlns="http://www.w3.org/2000/svg">
  <defs>
    <linearGradient id="skyGrad" x1="0" y1="0" x2="0" y2="1">
      <stop offset="0" stop-color="#0E2A47"/>
      <stop offset="1" stop-color="#123456"/>
    </linearGradient>
  </defs>

  <!-- Sky / navy background -->
  <rect width="1584" height="396" fill="url(#skyGrad)"/>

  <!-- Subtle stars/dots -->
  <g fill="#1FC4C4" opacity="0.35">
    <circle cx="120" cy="60" r="1.5"/>
    <circle cx="260" cy="90" r="1"/>
    <circle cx="440" cy="48" r="1.5"/>
    <circle cx="620" cy="72" r="1"/>
    <circle cx="780" cy="40" r="1.5"/>
    <circle cx="920" cy="88" r="1"/>
    <circle cx="1080" cy="56" r="1.5"/>
    <circle cx="1240" cy="36" r="1"/>
    <circle cx="1420" cy="80" r="1.5"/>
  </g>

  <!-- Waves stretching across full width -->
  <path d="M0,250 Q300,210 600,240 T1200,240 T1584,236 L1584,290 L0,290 Z" fill="#0D4A4A"/>
  <path d="M0,280 Q240,250 520,276 T1040,276 T1584,272 L1584,320 L0,320 Z" fill="#1F6B6B"/>
  <path d="M0,310 Q280,286 580,308 T1160,308 T1584,304 L1584,350 L0,350 Z" fill="#0FA5A5"/>
  <path d="M0,340 Q240,320 520,336 T1040,336 T1584,332 L1584,396 L0,396 Z" fill="#1FC4C4"/>
</svg>
