<svg xmlns="http://www.w3.org/2000/svg" viewBox="0 0 800 450" preserveAspectRatio="xMidYMid slice">
  <defs>
    <pattern id="dotsT" x="0" y="0" width="20" height="20" patternUnits="userSpaceOnUse">
      <circle cx="1" cy="1" r="1" fill="#1FC4C4" opacity="0.08"/>
    </pattern>
  </defs>
  <rect width="800" height="450" fill="#081A2E"/>
  <rect width="800" height="450" fill="url(#dotsT)"/>

  <!-- Terminal-style log -->
  <g transform="translate(120,110)" font-family="ui-monospace,Space Grotesk,monospace" font-size="14">
    <rect x="0" y="0" width="560" height="240" rx="6" fill="#06121e" stroke="#1FC4C4" stroke-opacity="0.25" stroke-width="1"/>
    <text x="20" y="32" fill="#1FC4C4" opacity="0.65" font-size="10" letter-spacing="2">RUN  ·  scan_4711.las</text>

    <g fill="#B8ECEC" opacity="0.9">
      <text x="20" y="68">14:32:01</text>
      <text x="120" y="68" fill="#1FC4C4">✓</text>
      <text x="148" y="68">filter_outliers</text>
      <text x="320" y="68" fill="#B8ECEC" opacity="0.55">radius=0.5</text>

      <text x="20" y="104">14:32:14</text>
      <text x="120" y="104" fill="#1FC4C4">✓</text>
      <text x="148" y="104">classify_ground</text>
      <text x="320" y="104" fill="#B8ECEC" opacity="0.55">algo=cloth-sim</text>

      <text x="20" y="140">14:32:48</text>
      <text x="120" y="140" fill="#1FC4C4">✓</text>
      <text x="148" y="140">extract_buildings</text>
      <text x="340" y="140" fill="#B8ECEC" opacity="0.55">n=37</text>

      <text x="20" y="176">14:33:22</text>
      <text x="120" y="176" fill="#1FC4C4">✓</text>
      <text x="148" y="176">export_las</text>
      <text x="320" y="176" fill="#B8ECEC" opacity="0.55">1.2 GB</text>
    </g>

    <text x="20" y="218" fill="#1FC4C4" opacity="0.55" font-size="11">→ replay · 4 ops · auditable</text>
  </g>

  <!-- Corner labels -->
  <text x="32" y="40" fill="#B8ECEC" opacity="0.65" font-family="ui-monospace,Space Grotesk,monospace" font-size="11" letter-spacing="3">[ 04 ] · TRUST · PREVIEW</text>
  <g transform="translate(720,418)">
    <circle cx="0" cy="-3" r="9" fill="none" stroke="#1FC4C4" stroke-width="1.3"/>
    <path d="M -3 -7 L 4 -3 L -3 1 Z" fill="#1FC4C4"/>
    <text x="20" y="0" fill="#B8ECEC" opacity="0.7" font-family="ui-monospace,Space Grotesk,monospace" font-size="11" letter-spacing="2">00:08</text>
  </g>
</svg>
